<svg width="200" height="200" viewBox="0 0 200 200" fill="none" xmlns="http://www.w3.org/2000/svg">
<circle cx="100" cy="100" r="100" fill="#0D7600"/>
<path d="M158.16 132.967C158.16 137.892 157.219 142.54 155.338 146.912C153.512 151.229 150.966 155.019 147.701 158.284C144.492 161.494 140.701 164.039 136.329 165.921C132.013 167.747 127.392 168.66 122.467 168.66C118.04 168.66 113.779 167.885 109.684 166.336C105.644 164.786 101.992 162.518 98.7266 159.529C95.4616 162.518 91.7816 164.786 87.6865 166.336C83.5915 167.885 79.3304 168.66 74.9033 168.66C69.9782 168.66 65.3298 167.747 60.958 165.921C56.6416 164.039 52.8509 161.494 49.5859 158.284C46.3763 155.019 43.8307 151.229 41.9492 146.912C40.123 142.54 39.21 137.892 39.21 132.967V47.9668H63.0332V132.967C63.0332 134.627 63.3376 136.204 63.9463 137.698C64.555 139.137 65.3851 140.41 66.4365 141.517C67.5433 142.568 68.8161 143.398 70.2549 144.007C71.6937 144.616 73.2432 144.92 74.9033 144.92C76.5635 144.92 78.113 144.616 79.5518 144.007C80.9906 143.398 82.2357 142.568 83.2871 141.517C84.3939 140.41 85.2516 139.137 85.8604 137.698C86.4691 136.204 86.7734 134.627 86.7734 132.967V47.9668H110.597V132.967C110.597 134.627 110.901 136.204 111.51 137.698C112.118 139.137 112.949 140.41 114 141.517C115.107 142.568 116.38 143.398 117.818 144.007C119.257 144.616 120.807 144.92 122.467 144.92C124.127 144.92 125.676 144.616 127.115 144.007C128.554 143.398 129.799 142.568 130.851 141.517C131.957 140.41 132.815 139.137 133.424 137.698C134.088 136.204 134.42 134.627 134.42 132.967V47.9668H158.16V132.967Z" fill="white"/>
</svg>
